{
  "asset": {
    "version": "2.0",
    "generator": "bblitec tools/fixtures/build-gltf-topology.mjs"
  },
  "scene": 0,
  "scenes": [
    {
      "nodes": [
        0,
        1,
        2,
        3
      ]
    }
  ],
  "nodes": [
    {
      "name": "Points",
      "mesh": 0,
      "translation": [
        -1.7999999999999998,
        0,
        0
      ]
    },
    {
      "name": "Lines",
      "mesh": 1,
      "translation": [
        -0.6,
        0,
        0
      ]
    },
    {
      "name": "LineStrip",
      "mesh": 2,
      "translation": [
        0.6,
        0,
        0
      ]
    },
    {
      "name": "Triangles",
      "mesh": 3,
      "translation": [
        1.7999999999999998,
        0,
        0
      ]
    }
  ],
  "meshes": [
    {
      "name": "Points",
      "primitives": [
        {
          "mode": 0,
          "attributes": {
            "POSITION": 0,
            "NORMAL": 1,
            "COLOR_0": 2
          },
          "material": 0
        }
      ]
    },
    {
      "name": "Lines",
      "primitives": [
        {
          "mode": 1,
          "attributes": {
            "POSITION": 3,
            "NORMAL": 4,
            "COLOR_0": 5
          },
          "indices": 6,
          "material": 1
        }
      ]
    },
    {
      "name": "LineStrip",
      "primitives": [
        {
          "mode": 3,
          "attributes": {
            "POSITION": 7,
            "NORMAL": 8,
            "COLOR_0": 9
          },
          "indices": 10,
          "material": 2
        }
      ]
    },
    {
      "name": "Triangles",
      "primitives": [
        {
          "mode": 4,
          "attributes": {
            "POSITION": 11,
            "NORMAL": 12,
            "COLOR_0": 13
          },
          "indices": 14,
          "material": 3
        }
      ]
    }
  ],
  "materials": [
    {
      "name": "PointsMaterial",
      "doubleSided": true,
      "pbrMetallicRoughness": {
        "baseColorFactor": [
          1,
          1,
          1,
          1
        ],
        "metallicFactor": 0,
        "roughnessFactor": 0.6
      }
    },
    {
      "name": "LinesMaterial",
      "doubleSided": true,
      "pbrMetallicRoughness": {
        "baseColorFactor": [
          1,
          1,
          1,
          1
        ],
        "metallicFactor": 0,
        "roughnessFactor": 0.6
      }
    },
    {
      "name": "LineStripMaterial",
      "doubleSided": true,
      "pbrMetallicRoughness": {
        "baseColorFactor": [
          1,
          1,
          1,
          1
        ],
        "metallicFactor": 0,
        "roughnessFactor": 0.6
      }
    },
    {
      "name": "TrianglesMaterial",
      "doubleSided": true,
      "pbrMetallicRoughness": {
        "baseColorFactor": [
          1,
          1,
          1,
          1
        ],
        "metallicFactor": 0,
        "roughnessFactor": 0.6
      }
    }
  ],
  "accessors": [
    {
      "bufferView": 0,
      "componentType": 5126,
      "count": 64,
      "type": "VEC3",
      "min": [
        -0.45,
        -0.45,
        0
      ],
      "max": [
        0.446,
        0.446,
        0
      ]
    },
    {
      "bufferView": 1,
      "componentType": 5126,
      "count": 64,
      "type": "VEC3"
    },
    {
      "bufferView": 2,
      "componentType": 5121,
      "normalized": true,
      "count": 64,
      "type": "VEC4"
    },
    {
      "bufferView": 3,
      "componentType": 5126,
      "count": 24,
      "type": "VEC3",
      "min": [
        -0.5,
        -0.5,
        0
      ],
      "max": [
        0.5,
        0.5,
        0
      ]
    },
    {
      "bufferView": 4,
      "componentType": 5126,
      "count": 24,
      "type": "VEC3"
    },
    {
      "bufferView": 5,
      "componentType": 5121,
      "normalized": true,
      "count": 24,
      "type": "VEC4"
    },
    {
      "bufferView": 6,
      "componentType": 5123,
      "count": 24,
      "type": "SCALAR"
    },
    {
      "bufferView": 7,
      "componentType": 5126,
      "count": 17,
      "type": "VEC3",
      "min": [
        -0.5,
        -0.45,
        0
      ],
      "max": [
        0.5,
        0.45,
        0
      ]
    },
    {
      "bufferView": 8,
      "componentType": 5126,
      "count": 17,
      "type": "VEC3"
    },
    {
      "bufferView": 9,
      "componentType": 5121,
      "normalized": true,
      "count": 17,
      "type": "VEC4"
    },
    {
      "bufferView": 10,
      "componentType": 5123,
      "count": 17,
      "type": "SCALAR"
    },
    {
      "bufferView": 11,
      "componentType": 5126,
      "count": 4,
      "type": "VEC3",
      "min": [
        -0.5,
        -0.5,
        0
      ],
      "max": [
        0.5,
        0.5,
        0
      ]
    },
    {
      "bufferView": 12,
      "componentType": 5126,
      "count": 4,
      "type": "VEC3"
    },
    {
      "bufferView": 13,
      "componentType": 5121,
      "normalized": true,
      "count": 4,
      "type": "VEC4"
    },
    {
      "bufferView": 14,
      "componentType": 5123,
      "count": 6,
      "type": "SCALAR"
    }
  ],
  "bufferViews": [
    {
      "buffer": 0,
      "byteOffset": 0,
      "byteLength": 768
    },
    {
      "buffer": 0,
      "byteOffset": 768,
      "byteLength": 768
    },
    {
      "buffer": 0,
      "byteOffset": 1536,
      "byteLength": 256
    },
    {
      "buffer": 0,
      "byteOffset": 1792,
      "byteLength": 288
    },
    {
      "buffer": 0,
      "byteOffset": 2080,
      "byteLength": 288
    },
    {
      "buffer": 0,
      "byteOffset": 2368,
      "byteLength": 96
    },
    {
      "buffer": 0,
      "byteOffset": 2464,
      "byteLength": 48
    },
    {
      "buffer": 0,
      "byteOffset": 2512,
      "byteLength": 204
    },
    {
      "buffer": 0,
      "byteOffset": 2716,
      "byteLength": 204
    },
    {
      "buffer": 0,
      "byteOffset": 2920,
      "byteLength": 68
    },
    {
      "buffer": 0,
      "byteOffset": 2988,
      "byteLength": 34
    },
    {
      "buffer": 0,
      "byteOffset": 3024,
      "byteLength": 48
    },
    {
      "buffer": 0,
      "byteOffset": 3072,
      "byteLength": 48
    },
    {
      "buffer": 0,
      "byteOffset": 3120,
      "byteLength": 16
    },
    {
      "buffer": 0,
      "byteOffset": 3136,
      "byteLength": 12
    }
  ],
  "buffers": [
    {
      "uri": "data:application/octet-stream;base64,",
      "byteLength": 3148
    }
  ]
}
