{
  "asset": {
    "version": "2.0",
    "generator": "bblitec tools/fixtures/build-gltf-uv-sets.mjs"
  },
  "extensionsUsed": [
    "KHR_texture_transform"
  ],
  "scene": 0,
  "scenes": [
    {
      "nodes": [
        0,
        1,
        2,
        3,
        4,
        5,
        6
      ]
    }
  ],
  "nodes": [
    {
      "name": "BaseColorUv1",
      "mesh": 0,
      "translation": [
        -1.875,
        0.625,
        0
      ]
    },
    {
      "name": "MetallicRoughnessUv1",
      "mesh": 1,
      "translation": [
        -0.625,
        0.625,
        0
      ]
    },
    {
      "name": "NormalUv1",
      "mesh": 2,
      "translation": [
        0.625,
        0.625,
        0
      ]
    },
    {
      "name": "EmissiveUv1",
      "mesh": 3,
      "translation": [
        1.875,
        0.625,
        0
      ]
    },
    {
      "name": "BaseColorTransformTexCoord",
      "mesh": 4,
      "translation": [
        -1.875,
        -0.625,
        0
      ]
    },
    {
      "name": "OcclusionUvSplit",
      "mesh": 5,
      "translation": [
        -0.625,
        -0.625,
        0
      ]
    },
    {
      "name": "OcclusionUv2WithMetallicRoughness",
      "mesh": 6,
      "translation": [
        0.625,
        -0.625,
        0
      ]
    }
  ],
  "meshes": [
    {
      "name": "BaseColorUv1",
      "primitives": [
        {
          "attributes": {
            "POSITION": 0,
            "NORMAL": 1,
            "TANGENT": 2,
            "TEXCOORD_0": 3,
            "TEXCOORD_1": 4
          },
          "indices": 5,
          "material": 0
        }
      ]
    },
    {
      "name": "MetallicRoughnessUv1",
      "primitives": [
        {
          "attributes": {
            "POSITION": 0,
            "NORMAL": 1,
            "TANGENT": 2,
            "TEXCOORD_0": 3,
            "TEXCOORD_1": 4
          },
          "indices": 5,
          "material": 1
        }
      ]
    },
    {
      "name": "NormalUv1",
      "primitives": [
        {
          "attributes": {
            "POSITION": 0,
            "NORMAL": 1,
            "TANGENT": 2,
            "TEXCOORD_0": 3,
            "TEXCOORD_1": 4
          },
          "indices": 5,
          "material": 2
        }
      ]
    },
    {
      "name": "EmissiveUv1",
      "primitives": [
        {
          "attributes": {
            "POSITION": 0,
            "NORMAL": 1,
            "TANGENT": 2,
            "TEXCOORD_0": 3,
            "TEXCOORD_1": 4
          },
          "indices": 5,
          "material": 3
        }
      ]
    },
    {
      "name": "BaseColorTransformTexCoord",
      "primitives": [
        {
          "attributes": {
            "POSITION": 0,
            "NORMAL": 1,
            "TANGENT": 2,
            "TEXCOORD_0": 3,
            "TEXCOORD_1": 4
          },
          "indices": 5,
          "material": 4
        }
      ]
    },
    {
      "name": "OcclusionUvSplit",
      "primitives": [
        {
          "attributes": {
            "POSITION": 0,
            "NORMAL": 1,
            "TANGENT": 2,
            "TEXCOORD_0": 3,
            "TEXCOORD_1": 4
          },
          "indices": 5,
          "material": 5
        }
      ]
    },
    {
      "name": "OcclusionUv2WithMetallicRoughness",
      "primitives": [
        {
          "attributes": {
            "POSITION": 0,
            "NORMAL": 1,
            "TANGENT": 2,
            "TEXCOORD_0": 3,
            "TEXCOORD_1": 4
          },
          "indices": 5,
          "material": 6
        }
      ]
    }
  ],
  "materials": [
    {
      "name": "BaseColorUv1",
      "doubleSided": true,
      "pbrMetallicRoughness": {
        "baseColorTexture": {
          "index": 0,
          "texCoord": 1
        },
        "metallicFactor": 0,
        "roughnessFactor": 0.7
      }
    },
    {
      "name": "MetallicRoughnessUv1",
      "doubleSided": true,
      "pbrMetallicRoughness": {
        "baseColorTexture": {
          "index": 0
        },
        "metallicRoughnessTexture": {
          "index": 2,
          "texCoord": 1
        },
        "metallicFactor": 1,
        "roughnessFactor": 1
      }
    },
    {
      "name": "NormalUv1",
      "doubleSided": true,
      "normalTexture": {
        "index": 1,
        "texCoord": 1
      },
      "pbrMetallicRoughness": {
        "baseColorTexture": {
          "index": 0
        },
        "metallicFactor": 0,
        "roughnessFactor": 0.4
      }
    },
    {
      "name": "EmissiveUv1",
      "doubleSided": true,
      "emissiveFactor": [
        1,
        1,
        1
      ],
      "emissiveTexture": {
        "index": 0,
        "texCoord": 1
      },
      "pbrMetallicRoughness": {
        "baseColorFactor": [
          0.02,
          0.02,
          0.02,
          1
        ],
        "metallicFactor": 0,
        "roughnessFactor": 0.9
      }
    },
    {
      "name": "BaseColorTransformTexCoord",
      "doubleSided": true,
      "pbrMetallicRoughness": {
        "baseColorTexture": {
          "index": 0,
          "texCoord": 0,
          "extensions": {
            "KHR_texture_transform": {
              "texCoord": 1
            }
          }
        },
        "metallicFactor": 0,
        "roughnessFactor": 0.7
      }
    },
    {
      "name": "OcclusionUvSplit",
      "doubleSided": true,
      "occlusionTexture": {
        "index": 3,
        "extensions": {
          "KHR_texture_transform": {
            "offset": [
              0.5,
              0
            ],
            "scale": [
              0.5,
              0.5
            ]
          }
        }
      },
      "pbrMetallicRoughness": {
        "baseColorTexture": {
          "index": 0
        },
        "metallicRoughnessTexture": {
          "index": 2,
          "extensions": {
            "KHR_texture_transform": {
              "scale": [
                1,
                1
              ]
            }
          }
        },
        "metallicFactor": 1,
        "roughnessFactor": 1
      }
    },
    {
      "name": "OcclusionUv2WithMetallicRoughness",
      "doubleSided": true,
      "occlusionTexture": {
        "index": 3,
        "texCoord": 1
      },
      "pbrMetallicRoughness": {
        "baseColorTexture": {
          "index": 0
        },
        "metallicRoughnessTexture": {
          "index": 2
        },
        "metallicFactor": 1,
        "roughnessFactor": 1
      }
    }
  ],
  "accessors": [
    {
      "bufferView": 0,
      "componentType": 5126,
      "count": 4,
      "type": "VEC3",
      "min": [
        -0.5,
        -0.5,
        0
      ],
      "max": [
        0.5,
        0.5,
        0
      ]
    },
    {
      "bufferView": 1,
      "componentType": 5126,
      "count": 4,
      "type": "VEC3"
    },
    {
      "bufferView": 2,
      "componentType": 5126,
      "count": 4,
      "type": "VEC4"
    },
    {
      "bufferView": 3,
      "componentType": 5126,
      "count": 4,
      "type": "VEC2"
    },
    {
      "bufferView": 4,
      "componentType": 5126,
      "count": 4,
      "type": "VEC2"
    },
    {
      "bufferView": 5,
      "componentType": 5123,
      "count": 6,
      "type": "SCALAR"
    }
  ],
  "bufferViews": [
    {
      "buffer": 0,
      "byteOffset": 0,
      "byteLength": 48
    },
    {
      "buffer": 0,
      "byteOffset": 48,
      "byteLength": 48
    },
    {
      "buffer": 0,
      "byteOffset": 96,
      "byteLength": 64
    },
    {
      "buffer": 0,
      "byteOffset": 160,
      "byteLength": 32
    },
    {
      "buffer": 0,
      "byteOffset": 192,
      "byteLength": 32
    },
    {
      "buffer": 0,
      "byteOffset": 224,
      "byteLength": 12
    },
    {
      "buffer": 0,
      "byteOffset": 236,
      "byteLength": 111
    },
    {
      "buffer": 0,
      "byteOffset": 348,
      "byteLength": 105
    },
    {
      "buffer": 0,
      "byteOffset": 456,
      "byteLength": 100
    }
  ],
  "images": [
    {
      "bufferView": 6,
      "mimeType": "image/png"
    },
    {
      "bufferView": 7,
      "mimeType": "image/png"
    },
    {
      "bufferView": 8,
      "mimeType": "image/png"
    }
  ],
  "samplers": [
    {
      "magFilter": 9728,
      "minFilter": 9728,
      "wrapS": 33071,
      "wrapT": 33071
    }
  ],
  "textures": [
    {
      "sampler": 0,
      "source": 0
    },
    {
      "sampler": 0,
      "source": 1
    },
    {
      "sampler": 0,
      "source": 2
    },
    {
      "sampler": 0,
      "source": 2
    }
  ],
  "buffers": [
    {
      "uri": "data:application/octet-stream;base64,",
      "byteLength": 556
    }
  ]
}
