{
  "asset": {
    "version": "2.0",
    "generator": "bblitec tools/fixtures/build-gltf-step-animation.mjs"
  },
  "scene": 0,
  "scenes": [
    {
      "nodes": [
        0,
        1,
        2,
        3
      ]
    }
  ],
  "nodes": [
    {
      "name": "StepTranslation",
      "mesh": 0,
      "translation": [
        -1.7999999999999998,
        0,
        0
      ]
    },
    {
      "name": "StepRotation",
      "mesh": 1,
      "translation": [
        -0.6,
        0,
        0
      ]
    },
    {
      "name": "StepScale",
      "mesh": 2,
      "translation": [
        0.6,
        0,
        0
      ]
    },
    {
      "name": "StepWeights",
      "mesh": 3,
      "translation": [
        1.7999999999999998,
        0,
        0
      ]
    }
  ],
  "meshes": [
    {
      "name": "StepTranslation",
      "primitives": [
        {
          "attributes": {
            "POSITION": 0,
            "NORMAL": 1
          },
          "indices": 3,
          "material": 0
        }
      ]
    },
    {
      "name": "StepRotation",
      "primitives": [
        {
          "attributes": {
            "POSITION": 0,
            "NORMAL": 1
          },
          "indices": 3,
          "material": 1
        }
      ]
    },
    {
      "name": "StepScale",
      "primitives": [
        {
          "attributes": {
            "POSITION": 0,
            "NORMAL": 1
          },
          "indices": 3,
          "material": 2
        }
      ]
    },
    {
      "name": "StepWeights",
      "primitives": [
        {
          "attributes": {
            "POSITION": 0,
            "NORMAL": 1
          },
          "indices": 3,
          "material": 3,
          "targets": [
            {
              "POSITION": 2
            }
          ]
        }
      ],
      "weights": [
        0
      ]
    }
  ],
  "materials": [
    {
      "name": "StepTranslationMaterial",
      "doubleSided": true,
      "pbrMetallicRoughness": {
        "baseColorFactor": [
          0.25,
          0.85,
          0.35,
          1
        ],
        "metallicFactor": 0,
        "roughnessFactor": 0.6
      }
    },
    {
      "name": "StepRotationMaterial",
      "doubleSided": true,
      "pbrMetallicRoughness": {
        "baseColorFactor": [
          0.45,
          0.6699999999999999,
          0.5,
          1
        ],
        "metallicFactor": 0,
        "roughnessFactor": 0.6
      }
    },
    {
      "name": "StepScaleMaterial",
      "doubleSided": true,
      "pbrMetallicRoughness": {
        "baseColorFactor": [
          0.65,
          0.49,
          0.6499999999999999,
          1
        ],
        "metallicFactor": 0,
        "roughnessFactor": 0.6
      }
    },
    {
      "name": "StepWeightsMaterial",
      "doubleSided": true,
      "pbrMetallicRoughness": {
        "baseColorFactor": [
          0.8500000000000001,
          0.30999999999999994,
          0.7999999999999999,
          1
        ],
        "metallicFactor": 0,
        "roughnessFactor": 0.6
      }
    }
  ],
  "animations": [
    {
      "name": "step",
      "samplers": [
        {
          "input": 4,
          "output": 5,
          "interpolation": "STEP"
        },
        {
          "input": 4,
          "output": 6,
          "interpolation": "STEP"
        },
        {
          "input": 4,
          "output": 7,
          "interpolation": "STEP"
        },
        {
          "input": 4,
          "output": 8,
          "interpolation": "STEP"
        }
      ],
      "channels": [
        {
          "sampler": 0,
          "target": {
            "node": 0,
            "path": "translation"
          }
        },
        {
          "sampler": 1,
          "target": {
            "node": 1,
            "path": "rotation"
          }
        },
        {
          "sampler": 2,
          "target": {
            "node": 2,
            "path": "scale"
          }
        },
        {
          "sampler": 3,
          "target": {
            "node": 3,
            "path": "weights"
          }
        }
      ]
    }
  ],
  "accessors": [
    {
      "bufferView": 0,
      "componentType": 5126,
      "count": 4,
      "type": "VEC3",
      "min": [
        -0.4,
        -0.4,
        0
      ],
      "max": [
        0.4,
        0.4,
        0
      ]
    },
    {
      "bufferView": 1,
      "componentType": 5126,
      "count": 4,
      "type": "VEC3",
      "min": [
        0,
        0,
        1
      ],
      "max": [
        0,
        0,
        1
      ]
    },
    {
      "bufferView": 2,
      "componentType": 5126,
      "count": 4,
      "type": "VEC3",
      "min": [
        -0.55,
        0,
        0
      ],
      "max": [
        0.55,
        0,
        0
      ]
    },
    {
      "bufferView": 3,
      "componentType": 5123,
      "count": 6,
      "type": "SCALAR"
    },
    {
      "bufferView": 4,
      "componentType": 5126,
      "count": 3,
      "type": "SCALAR"
    },
    {
      "bufferView": 5,
      "componentType": 5126,
      "count": 3,
      "type": "VEC3",
      "min": [
        -1.8,
        -0.35,
        0
      ],
      "max": [
        -1.8,
        0.35,
        0
      ]
    },
    {
      "bufferView": 6,
      "componentType": 5126,
      "count": 3,
      "type": "VEC4"
    },
    {
      "bufferView": 7,
      "componentType": 5126,
      "count": 3,
      "type": "VEC3",
      "min": [
        0.45,
        0.45,
        1
      ],
      "max": [
        1.4,
        1.4,
        1
      ]
    },
    {
      "bufferView": 8,
      "componentType": 5126,
      "count": 3,
      "type": "SCALAR"
    }
  ],
  "bufferViews": [
    {
      "buffer": 0,
      "byteOffset": 0,
      "byteLength": 48
    },
    {
      "buffer": 0,
      "byteOffset": 48,
      "byteLength": 48
    },
    {
      "buffer": 0,
      "byteOffset": 96,
      "byteLength": 48
    },
    {
      "buffer": 0,
      "byteOffset": 144,
      "byteLength": 12
    },
    {
      "buffer": 0,
      "byteOffset": 156,
      "byteLength": 12
    },
    {
      "buffer": 0,
      "byteOffset": 168,
      "byteLength": 36
    },
    {
      "buffer": 0,
      "byteOffset": 204,
      "byteLength": 48
    },
    {
      "buffer": 0,
      "byteOffset": 252,
      "byteLength": 36
    },
    {
      "buffer": 0,
      "byteOffset": 288,
      "byteLength": 12
    }
  ],
  "buffers": [
    {
      "uri": "data:application/octet-stream;base64,",
      "byteLength": 300
    }
  ]
}
